<svg width="276" height="249" xmlns="http://www.w3.org/2000/svg">
 <!-- Created with Method Draw - http://github.com/duopixel/Method-Draw/ -->
 <defs>
  <filter height="200%" width="200%" y="-50%" x="-50%" id="svg_5_blur">
   <feGaussianBlur stdDeviation="10" in="SourceGraphic"/>
  </filter>
 </defs>
 <g>
  <title>Layer 1</title>
  <ellipse stroke="#000" opacity="0.33" filter="url(#svg_5_blur)" ry="6.818183" rx="126.298701" id="svg_5" cy="228.025858" cx="132.001851" stroke-width="0" fill="#2d2d2d"/>
  <g id="svg_3" stroke="null">
   <rect fill="#7f3f00" stroke-width="0" x="-128.294385" y="319.805653" width="8" height="122.034576" id="svg_2" rx="6" transform="matrix(0.9621668274207061,0.5390891450903227,-0.6158438531910588,0.8422487124631209,436.6931139037599,-72.04537496520732) " stroke="#000"/>
   <rect fill="#9b5717" stroke-width="0" x="-128.266005" y="321.207529" width="4.246365" height="118.995127" id="svg_1" rx="6" transform="matrix(0.9621668274207061,0.5390891450903227,-0.6158438531910588,0.8422487124631209,436.2874460483516,-71.06750804738431) " stroke="#000"/>
  </g>
  <g id="svg_10" stroke="null">
   <rect fill="#7f3f00" stroke-width="0" x="243.809793" y="81.636913" width="8" height="122.034576" id="svg_8" rx="6" transform="matrix(-0.8113613693349473,0.5390891450903227,0.5193194129973127,0.8422487124631209,315.6518581721682,-72.04537496520732) " stroke="#000"/>
   <rect fill="#9b5717" stroke-width="0" x="243.838172" y="83.038789" width="4.246365" height="118.995127" id="svg_9" rx="6" transform="matrix(-0.8113613693349473,0.5390891450903227,0.5193194129973127,0.8422487124631209,315.9939435749061,-71.06750804738431) " stroke="#000"/>
  </g>
  <rect fill="#eeeeee" stroke="#000" stroke-width="0" stroke-opacity="null" x="36.335552" y="6.473068" width="196.73913" height="125" id="svg_11" rx="2"/>
  <path id="svg_28" d="m191.218114,81.60496c0,0 7.91031,0.35612 7.94345,0.35599c-0.03314,0.00013 -0.03314,5.93547 0,5.93534c-0.03314,0.00013 -1.79099,0.11884 -1.79099,0.11884c0,0 -0.43946,1.54318 -0.43946,1.54318c0,0 2.63677,0.11871 2.66991,0.11858c-0.03314,0.00013 -0.4726,1.78073 -0.43946,1.7806c-0.03314,0.00013 -5.52641,0.35625 -5.49327,0.35612c-0.03314,0.00013 -3.76857,-8.54676 -3.76857,-8.54676c0,0 1.31839,-1.66189 1.31839,-1.66189z" stroke-width="0" fill="#000" stroke="#fff"/>
  <path id="svg_24" d="m188.347724,79.94307c0,0 -2.2741,1.42448 -2.2741,1.42448c0,0 -0.75803,0 -0.73263,-0.00014c-0.0254,0.00014 -1.9626,2.8491 -1.9626,2.8491c0,0 -0.08422,3.91732 -0.08422,3.91732c0,0 2.2741,2.73026 2.2995,2.73012c-0.0254,0.00014 1.74334,0.83109 1.74334,0.83109c0,0 0.16845,0.83094 0.16845,0.83094c0,0 6.90653,1.42448 6.90653,1.30578c0,-0.11871 0.6738,-1.30578 0.3369,-2.61155c-0.3369,-1.30577 -1.09494,-2.84896 -1.68452,-3.67991c-0.58958,-0.83095 -4.71665,-7.59723 -4.71665,-7.59723z" stroke-width="2" fill="#b7b7b7"/>
  <rect fill="#9b5717" stroke-width="0" x="132.581936" y="25.885426" width="4.246365" height="212.47338" id="svg_7" rx="6" transform="rotate(90 134.70513916015625,132.12211608886722) " stroke="#000"/>
  <!-- Created with Method Draw - http://github.com/duopixel/Method-Draw/ -->
  <path id="svg_29" d="m197.629444,101.32657c0,0 -0.75588,1.64374 -2.26763,1.1741c-1.51176,-0.46964 -3.21248,-0.93928 -5.85805,-0.93928c-2.64557,0 -4.53526,0.46964 -5.4801,0.70446c-0.94485,0.23482 -2.64557,-0.46964 -2.64557,-2.11338c0,-1.64374 1.70072,-5.8705 1.79521,-5.8705c-0.09449,0 1.7952,2.58302 1.98417,0.93928c0.18897,-1.64374 0.18897,-4.46158 0.28346,-4.46158c-0.09449,0 6.14149,1.40892 7.65325,0.70446c1.51175,-0.70446 1.51175,3.28748 1.51175,3.28748c0,0 3.96835,-0.46964 3.96835,-0.46964c0,0 -0.94484,7.0446 -0.94484,7.0446z" stroke-width="0" fill="#000" stroke="#fff"/>
  <path id="svg_27" d="m191.973544,89.55831c0,0 -1.09866,-1.30577 -2.74664,-1.66189c-1.64798,-0.35612 -3.95516,-0.11871 -3.95516,-0.11871c0,0 -2.08744,-0.59353 -2.08744,-0.59353c0,0 7.80045,-20.53627 7.80045,-20.53627c0,0 0.21973,-2.49284 0.21973,-2.49284c0,0 0.32959,-6.05405 0.36273,-6.05418c-0.03314,0.00013 1.50498,-1.66176 2.60363,-1.42435c1.09866,0.23741 2.41704,0.47483 2.96637,1.89931c0.54933,1.42448 1.09865,2.25542 0.3296,4.15473c-0.76906,1.89931 -0.98879,3.91733 -0.98879,3.91733c0,0 -3.95516,15.66929 -3.95516,15.66929c0,0 0.10987,3.08638 0.10987,4.15474c0,1.06836 -0.6592,3.08638 -0.6592,3.08638l0.00001,-0.00001z" stroke-width="2" fill="#b7b7b7"/>
  <path id="svg_26" d="m198.345734,59.05067c0,0 -2.8565,-1.66189 -2.8565,-1.66189c0,0 -15.38116,-7.83465 -15.38116,-7.83465c0,0 -2.52691,-0.94965 -2.52691,-0.94965c0,0 -1.20851,-0.47483 -1.53811,0c-0.32959,0.47482 -4.17489,-1.6619 -4.17489,-1.6619c0,0 -0.43946,-1.66189 -0.43946,-1.66189c0,0 -6.0426,-2.61155 -6.00946,-2.61169c-0.03314,0.00014 0.73592,1.0685 -0.143,2.25557c-0.87893,1.18707 -1.86771,2.01801 -1.86771,2.01801c0,0 2.19731,2.01802 2.23044,2.01788c-0.03314,0.00014 -0.91206,0.94979 0.95565,1.54333c1.86772,0.59353 3.5157,-0.47483 3.5157,-0.47483c0,0 4.50448,1.89931 4.50448,1.89931c0,0 0.65919,1.42448 0.69233,1.42434c-0.03314,0.00014 5.2404,3.32393 5.2404,3.32393c0,0 7.03139,3.32379 7.06453,3.32365c-0.03314,0.00014 1.28525,1.54333 1.28525,1.54333c0,0 -0.87893,1.54318 0.65919,1.8993c1.53811,0.35612 4.28475,0 4.31789,-0.00013c-0.03314,0.00013 3.59242,-1.54305 3.59242,-1.54305c0,0 0.87892,-2.84897 0.87892,-2.84897l0,0z" stroke-width="2" fill="#b7b7b7"/>
  <ellipse transform="rotate(-22.166372299194336 17.020513534545923,-50.694236755371094) matrix(-0.13300361240141526,-0.13736978116063936,-0.13736978116063936,0.14821077318699016,190.56157231496383,108.8884639740447) " ry="11.046475" rx="4.651148" id="svg_25" cy="67.755731" cx="1234.804543" stroke-width="0" fill="#ffffff" stroke="#fff"/>
  <path id="svg_23" d="m203.385584,102.68863l-4.65555,-8.78431l-15.51849,0l-4.65555,8.78431l24.82959,0z" fill-opacity="null" stroke-opacity="null" stroke-width="0" fill="#000" stroke="#fff"/>
  <ellipse ry="15.116229" rx="15.697623" id="svg_22" cy="-467.293383" cx="1152.746512" fill-opacity="null" stroke-opacity="null" stroke-width="0" fill="#000" stroke="#fff" transform="matrix(-0.18896915281705534,0,0,0.20417631360263025,411.8945148967544,156.12280896644893) "/>
  <line fill="none" stroke="#000" stroke-opacity="null" fill-opacity="null" x1="201.552944" y1="102.08003" x2="47.748596" y2="102.08003" id="svg_33" stroke-linejoin="null" stroke-linecap="null"/>
  <line fill="none" stroke="#000" x1="60.248596" y1="114.625242" x2="60.248596" y2="21.65074" id="svg_34" stroke-linejoin="null" stroke-linecap="null"/>
  <path fill="none" stroke="#b7b7b7" stroke-width="2" stroke-opacity="null" opacity="0.5" d="m65.683374,95.6035c0,0 7.6087,-38.58695 14.67392,-34.23913c7.06521,4.34783 3.26087,31.52174 15.76087,16.84783c12.5,-14.67391 26.63043,-46.19565 38.04348,-33.15217c11.41304,13.04347 27.71739,9.7826 30.43478,2.71739c2.71739,-7.06522 9.23913,-19.02174 23.36956,-26.08696" id="svg_36" stroke-dasharray="2,2"/>
 </g>
</svg>