<svg width="192" height="249.00000000000003" xmlns="http://www.w3.org/2000/svg">
 <!-- Created with Method Draw - http://github.com/duopixel/Method-Draw/ -->
 <defs>
  <filter id="svg_10_blur" x="-50%" y="-50%" width="200%" height="200%">
   <feGaussianBlur stdDeviation="10"/>
  </filter>
 </defs>
 <g>
  <title>background</title>
  <rect fill="none" id="canvas_background" height="402" width="582" y="-1" x="-1"/>
 </g>
 <g>
  <title>Layer 1</title>
  <!-- Created with Method Draw - http://github.com/duopixel/Method-Draw/ -->
  <ellipse transform="rotate(-22.166372299194336 -37.59725189208981,-54.27394104003906) matrix(-0.13300361240141526,-0.13736978116063936,-0.13736978116063936,0.14821077318699016,190.56157231496383,108.8884639740447) " ry="11.046475" rx="4.651148" id="svg_25" cy="249.875095" cx="1457.355302" stroke-width="0" fill="#ffffff" stroke="#fff"/>
  <rect fill="#3d3d3d" stroke-width="0" x="60.663859" y="232.594032" width="97.752411" height="7.303341" id="svg_10" filter="url(#svg_10_blur)"/>
  <path id="svg_28" d="m109.990072,155.320128c0,0 31.061249,1.398369 31.191379,1.397859c-0.13013,0.00051 -0.13013,23.306686 0,23.306176c-0.13013,0.00051 -7.032643,0.466647 -7.032643,0.466647c0,0 -1.725618,6.059573 -1.725618,6.059573c0,0 10.35375,0.466136 10.48388,0.465626c-0.13013,0.00051 -1.855749,6.992355 -1.725618,6.991845c-0.13013,0.00051 -21.700439,1.398879 -21.570309,1.398369c-0.13013,0.00051 -14.797965,-33.560384 -14.797965,-33.560384c0,0 5.176895,-6.525709 5.176895,-6.525709l-0.000001,-0.000002z" stroke-width="0" fill="#bcbcbc" stroke="#fff"/>
  <path id="svg_24" d="m98.718971,148.794419c0,0 -8.929661,5.593476 -8.929661,5.593476c0,0 -2.976541,0 -2.876803,-0.00055c-0.099738,0.00055 -7.7065,11.187502 -7.7065,11.187502c0,0 -0.330705,15.382059 -0.330705,15.382059c0,0 8.929661,10.720855 9.029399,10.720305c-0.099738,0.00055 6.845537,3.263424 6.845537,3.263424c0,0 0.661449,3.262835 0.661449,3.262835c0,0 27.119727,5.593476 27.119727,5.127379c0,-0.466136 2.645796,-5.127379 1.322898,-10.254719c-1.322898,-5.12734 -4.299478,-11.186952 -6.61457,-14.449826c-2.315091,-3.262874 -18.520771,-29.831885 -18.520771,-29.831885z" stroke-width="2" fill="#d8d8d8" stroke="null"/>
  <path id="svg_29" d="m135.165308,232.760563c0,0 -2.968098,6.45444 -8.904255,4.610314c-5.936196,-1.844126 -12.614378,-3.688251 -23.002683,-3.688251c-10.388305,0 -17.808511,1.844126 -21.518594,2.766188c-3.710123,0.922063 -10.388305,-1.844126 -10.388305,-8.298565c0,-6.45444 6.678182,-23.05157 7.049214,-23.05157c-0.371032,0 7.049174,10.142691 7.791199,3.688251c0.742025,-6.45444 0.742025,-17.519193 1.113056,-17.519193c-0.371032,0 24.115661,5.532377 30.051857,2.766188c5.936157,-2.766188 5.936157,12.908879 5.936157,12.908879c0,0 15.582437,-1.844126 15.582437,-1.844126c0,0 -3.710084,27.661884 -3.710084,27.661884l0.000001,0.000001z" stroke-width="0" fill="#bcbcbc" stroke="#fff"/>
  <path id="svg_27" d="m112.956403,186.550382c0,0 -4.314085,-5.12734 -10.785174,-6.525709c-6.471089,-1.398369 -15.530644,-0.466136 -15.530644,-0.466136c0,0 -8.196707,-2.330602 -8.196707,-2.330602c0,0 30.629864,-80.639343 30.629864,-80.639343c0,0 0.862809,-9.788583 0.862809,-9.788583c0,0 1.294194,-23.772312 1.424324,-23.772822c-0.13013,0.00051 5.909574,-6.525198 10.22362,-5.592965c4.314085,0.932233 9.490941,1.864505 11.647983,7.457981c2.157043,5.593476 4.314046,8.856311 1.294233,16.314292c-3.019852,7.457981 -3.882661,15.382098 -3.882661,15.382098c0,0 -15.530644,61.528274 -15.530644,61.528274c0,0 0.431424,12.119224 0.431424,16.314331c0,4.195107 -2.588467,12.119224 -2.588467,12.119224l0.000039,-0.000039l0.000001,-0.000001z" stroke-width="2" fill="#d8d8d8" stroke="null"/>
  <path id="svg_23" d="m157.767823,238.108935l-18.280851,-34.493167l-60.936131,0l-18.280851,34.493167l97.497833,0z" stroke-opacity="null" stroke-width="0" fill="#bcbcbc" stroke="#fff"/>
  <line stroke="#ff9b9b" stroke-linecap="null" stroke-linejoin="null" id="svg_6" y2="9.970419" x2="74.409094" y1="234.431806" x1="74.409094" stroke-width="3" fill="none"/>
  <path id="svg_26" d="m137.977949,66.756668c0,0 -11.216559,-6.525709 -11.216559,-6.525709c0,0 -60.39688,-30.764157 -60.39688,-30.764157c0,0 -9.922365,-3.728971 -9.922365,-3.728971c0,0 -4.745431,-1.864505 -6.039664,0c-1.294194,1.864466 -16.393453,-6.525748 -16.393453,-6.525748c0,0 -1.725618,-6.525709 -1.725618,-6.525709c0,0 -23.727351,-10.254719 -23.597221,-10.255269c-0.13013,0.00055 2.889722,4.195657 -0.561515,8.8569c-3.451276,4.661243 -7.333898,7.924078 -7.333898,7.924078c0,0 8.628131,7.924117 8.758222,7.923567c-0.13013,0.00055 -3.581367,3.729521 3.752531,6.060162c7.333937,2.330602 13.805026,-1.864505 13.805026,-1.864505c0,0 17.687648,7.457981 17.687648,7.457981c0,0 2.588428,5.593476 2.718558,5.592926c-0.13013,0.00055 20.577369,13.052007 20.577369,13.052007c0,0 27.610012,13.051457 27.740143,13.050907c-0.13013,0.00055 5.046764,6.060162 5.046764,6.060162c0,0 -3.451276,6.059573 2.588428,7.457942c6.039664,1.398369 16.824838,0 16.954969,-0.00051c-0.13013,0.00051 14.106281,-6.059062 14.106281,-6.059062c0,0 3.451237,-11.186991 3.451237,-11.186991l0,0l-0.000003,-0.000001z" stroke-width="2" fill="#d8d8d8" stroke="null"/>
  <ellipse ry="15.116229" rx="15.697623" id="svg_22" cy="198.074539" cx="1845.205471" stroke-width="0" fill="#bcbcbc" transform="matrix(-0.7420212294060986,0,0,0.8017348703558085,1490.3347547217393,-85.52085417794751) " stroke="#fff"/>
  <line stroke-linecap="null" stroke-linejoin="null" id="svg_2" y2="198.977263" x2="11.660406" y1="198.977263" x1="185.318177" stroke-width="3" stroke="#9b9bff" fill="none"/>
  <line stroke-linecap="null" stroke-linejoin="null" id="svg_3" y2="175.1024" x2="100.556682" y1="232.613625" x1="43.045458" stroke-width="3" stroke="#9bffa5" fill="none"/>
  <line stroke-linecap="null" stroke-linejoin="null" id="svg_4" y2="100.564004" x2="177.367806" y1="156.249993" x1="121.681817" stroke-width="3" stroke="#9bffa5" fill="none"/>
 </g>
</svg>