<svg width="368" height="365" xmlns="http://www.w3.org/2000/svg">
 <!-- Created with Method Draw - http://github.com/duopixel/Method-Draw/ -->
 <defs>
  <filter height="200%" width="200%" y="-50%" x="-50%" id="svg_21_blur">
   <feGaussianBlur stdDeviation="7.5"/>
  </filter>
 </defs>
 <g>
  <title>background</title>
  <rect x="-1" y="-1" width="370" height="367" id="canvas_background" fill="none"/>
 </g>
 <g>
  <title>Layer 1</title>
  <path stroke="#ff5800" opacity="0.33" filter="url(#svg_21_blur)" id="svg_21" d="m-2065.85702,-1731.70472c0,0 22.88355,5.24443 22.35842,5.18935c0.52513,0.05508 -22.35842,3.9884 -22.88355,3.93333c0.52513,0.05507 -180.71252,-2.94174 -181.23765,-2.99681c0.52513,0.05507 -8.62828,-7.62428 -9.15341,-7.67935c0.52513,0.05507 -93.75506,-0.69413 -94.28019,-0.7492c0.52513,0.05507 -4.05158,-10.62108 -4.57671,-10.67616c0.52513,0.05508 254.99011,1.17888 254.46498,1.12381c0.52513,0.05507 45.37688,11.66773 44.85174,11.61266" stroke-width="0" fill="#ffffff"/>
  <path stroke="#ffffff" fill-opacity="0" id="svg_19" d="m167.28492,130.20237c0,0 4.69731,-20.26101 -0.19704,-40.26321c45.51724,-77.38066 156.35468,-58.0826 177.53695,-2.15971c21.18227,55.92289 9.3596,176.6336 9.3596,176.6336" stroke-width="18" fill="#000000"/>
  <path stroke="#666666" id="svg_3" d="m326.37623,221.93271c0,1.7489 -19.0279,3.16667 -42.5,3.16667m42.5,-3.16667l0,0c0,1.7489 -19.0279,3.16667 -42.5,3.16667c-23.4721,0 -42.49999,-1.41777 -42.49999,-3.16667m0,0l0,0c0,-1.7489 19.02789,-3.16667 42.49999,-3.16667c23.4721,0 42.5,1.41777 42.5,3.16667l0,12.66669c0,1.7489 -19.0279,3.16666 -42.5,3.16666c-23.4721,0 -42.49999,-1.41776 -42.49999,-3.16666l0,-12.66669z" stroke-opacity="null" stroke-width="0" fill="#ffffff"/>
  <rect stroke="#666666" id="svg_4" height="85.000001" width="85" y="261.674376" x="283.378016" stroke-opacity="null" stroke-width="0" fill="#ffffff"/>
  <path stroke="#666666" id="svg_5" d="m189.37623,183.93271c0,3.40576 -12.53603,6.16667 -28.00001,6.16667m28.00001,-6.16667l0,0c0,3.40576 -12.53603,6.16667 -28.00001,6.16667c-15.46397,0 -27.99999,-2.76091 -27.99999,-6.16667m0,0l0,0c0,-3.40576 12.53602,-6.16667 27.99999,-6.16667c15.46398,0 28.00001,2.76091 28.00001,6.16667l0,24.6667c0,3.40575 -12.53603,6.16666 -28.00001,6.16666c-15.46397,0 -27.99999,-2.76091 -27.99999,-6.16666l0,-24.6667z" stroke-opacity="null" stroke-width="0" fill="#ffffff"/>
  <path stroke="#666666" id="svg_6" d="m212.7893,346.67437l28.23122,-112.99998l94.10407,0l28.23121,112.99998l-150.5665,0z" stroke-opacity="null" stroke-width="0" fill="#ffffff"/>
  <path stroke="#666666" id="svg_7" d="m326.37623,200.92531c0,3.12962 -43.20453,5.66668 -96.50001,5.66668m96.50001,-5.66668l0,0c0,3.12962 -43.20453,5.66668 -96.50001,5.66668c-53.29547,0 -96.49999,-2.53705 -96.49999,-5.66668m0,0l0,0c0,-3.12961 43.20452,-5.66667 96.49999,-5.66667c53.29548,0 96.50001,2.53706 96.50001,5.66667l0,22.6667c0,3.12962 -43.20453,5.66667 -96.50001,5.66667c-53.29547,0 -96.49999,-2.53705 -96.49999,-5.66667l0,-22.6667z" stroke-opacity="null" stroke-width="0" fill="#ffffff"/>
  <path stroke="#666666" id="svg_11" d="m189.17321,184.64621c0,0 -0.22174,-49.08136 -0.71435,-60.93544c-2.46305,-43.38117 -15.02228,-34.35666 -90.51395,-33.71617c-54.80201,21.82276 -57.22648,24.95204 -85.22648,58.65083c0.49261,12.64952 -0.08929,31.23175 0.89593,38.7577" stroke-opacity="null" stroke-width="0" fill="#ffffff"/>
  <rect rx="5" id="svg_15" height="46.30542" width="12.807882" y="107.664274" x="17.038609" stroke-opacity="null" stroke-width="0" stroke="#666666" fill="#ffffff"/>
  <rect stroke="#666666" rx="2" id="svg_16" height="158.620703" width="6.680684" y="75.151948" x="20.102209" stroke-opacity="null" stroke-width="0" fill="#ffffff"/>
  <path stroke="#666666" id="svg_17" d="m30.31709,188.19953c0,0.45435 -3.06453,0.82267 -6.84481,0.82267m6.84481,-0.82267l0,0c0,0.45435 -3.06453,0.82267 -6.84481,0.82267c-3.78029,0 -6.84481,-0.36832 -6.84481,-0.82267m0,0l0,0c0,-0.45434 3.06452,-0.82266 6.84481,-0.82266c3.78028,0 6.84481,0.36832 6.84481,0.82266l0,3.29066c0,0.45435 -3.06453,0.82267 -6.84481,0.82267c-3.78029,0 -6.84481,-0.36832 -6.84481,-0.82267l0,-3.29066z" stroke-opacity="null" stroke-width="0" fill="#ffffff"/>
  <!-- Created with Method Draw - http://github.com/duopixel/Method-Draw/ -->

 </g>
</svg>