<svg width="235" height="205" xmlns="http://www.w3.org/2000/svg">
 <!-- Created with Method Draw - http://github.com/duopixel/Method-Draw/ -->

 <g>
  <title>background</title>
  <rect x="-1" y="-1" width="237" height="207" id="canvas_background" fill="none"/>
 </g>
 <g>
  <title>Layer 1</title>
  <!-- Created with Method Draw - http://github.com/duopixel/Method-Draw/ -->
  <!-- Created with Method Draw - http://github.com/duopixel/Method-Draw/ -->
  <defs>
   <filter height="200%" width="200%" y="-50%" x="-50%" id="svg_45">
    <feGaussianBlur stdDeviation="7.5"/>
   </filter>
  </defs>
  <!-- Created with Method Draw - http://github.com/duopixel/Method-Draw/ -->
  <defs stroke="null" transform="translate(-53.45439529418945,-2.842170943040401e-14) translate(106.9087905883789,103.12374877929688) translate(-538.9984741210938,-268.85833740234375) translate(-423.2381286621094,-699.8633422851562) translate(1322.0872802734375,0) translate(0,1121.41259765625) ">
   <filter stroke="null" height="200%" width="200%" y="-50%" x="-50%" id="svg_31">
    <feGaussianBlur stroke="null" stdDeviation="10"/>
   </filter>
  </defs>
  <ellipse stroke="#ffffff" opacity="0.33" filter="url(#svg_31)" ry="17.857137" rx="667.857166" id="svg_43" cy="24880.713573" cx="17790.448801" stroke-width="0" fill="#212121" transform="matrix(0.17337922764721572,0,0,0.23692425662208405,-2963.6394864001445,-5698.546765523441) "/>
  <path stroke="#999999" id="svg_42" d="m131.696829,62.950625c0,0 2.371324,-12.498561 -0.099471,-24.837468c22.978289,-47.734387 78.931916,-35.829848 89.625278,-1.332276c10.693362,34.497572 4.72497,108.961291 4.72497,108.961291" stroke-width="8" fill="none"/>
  <path stroke="#ff5800" opacity="0.33" filter="url(#svg_45)" id="svg_44" d="m-363.718123,-404.251805c0,0 5.137139,1.42396 5.019252,1.409005c0.117887,0.014955 -5.019252,1.082924 -5.137139,1.067972c0.117887,0.014953 -40.56824,-0.798737 -40.686127,-0.813689c0.117887,0.014953 -1.936967,-2.070133 -2.054853,-2.085086c0.117887,0.014953 -21.047118,-0.188469 -21.165005,-0.203422c0.117887,0.014953 -0.909541,-2.88382 -1.027428,-2.898775c0.117887,0.014955 57.242852,0.320088 57.124965,0.305135c0.117887,0.014953 10.186678,3.168005 10.068789,3.153052" stroke-width="0" fill="#212121"/>
  <path stroke="null" id="svg_41" d="m212.839505,119.537006c0,1.078857 -9.704837,1.953447 -21.676358,1.953447m21.676358,-1.953447l0,0c0,1.078857 -9.704837,1.953447 -21.676358,1.953447c-11.971521,0 -21.676353,-0.87459 -21.676353,-1.953447m0,0l0,0c0,-1.078857 9.704832,-1.953447 21.676353,-1.953447c11.971521,0 21.676358,0.87459 21.676358,1.953447l0,7.813796c0,1.078857 -9.704837,1.953441 -21.676358,1.953441c-11.971521,0 -21.676353,-0.874584 -21.676353,-1.953441l0,-7.813796z" stroke-width="2" fill="#d8d8d8"/>
  <rect transform="matrix(0.5100319467760148,0,0,0.6168774864489283,-97.78008533436791,-214.10050765164) " stroke="null" id="svg_40" height="85.000001" width="85" y="580.590572" x="564.080436" stroke-width="2" fill="#d8d8d8"/>
  <path stroke="null" id="svg_39" d="m142.965129,96.095662c0,2.100937 -6.393776,3.80408 -14.2809,3.80408m14.2809,-3.80408l0,0c0,2.100937 -6.393776,3.80408 -14.2809,3.80408c-7.887119,0 -14.280889,-1.703143 -14.280889,-3.80408m0,0l0,0c0,-2.100937 6.393771,-3.80408 14.280889,-3.80408c7.887124,0 14.2809,1.703143 14.2809,3.80408l0,15.216332c0,2.10093 -6.393776,3.804074 -14.2809,3.804074c-7.887119,0 -14.280889,-1.703143 -14.280889,-3.804074l0,-15.216332z" stroke-width="2" fill="#d8d8d8"/>
  <path stroke="null" id="svg_38" d="m153.916457,196.487328l14.398824,-69.707144l47.996082,0l14.398819,69.707144l-76.793725,0z" stroke-width="2" fill="#d8d8d8"/>
  <path stroke="null" id="svg_37" d="m212.839505,106.578014c0,1.930592 -22.035691,3.495647 -49.218088,3.495647m49.218088,-3.495647l0,0c0,1.930592 -22.035691,3.495647 -49.218088,3.495647c-27.182392,0 -49.218078,-1.565049 -49.218078,-3.495647m0,0l0,0c0,-1.930586 22.035685,-3.495641 49.218078,-3.495641c27.182397,0 49.218088,1.565055 49.218088,3.495641l0,13.982577c0,1.930592 -22.035691,3.495641 -49.218088,3.495641c-27.182392,0 -49.218078,-1.565049 -49.218078,-3.495641l0,-13.982577z" stroke-width="2" fill="#d8d8d8"/>
  <rect transform="matrix(0.5100319467760148,0,0,0.6168774864489283,-97.78008533436791,-214.10050765164) " stroke="null" rx="5" id="svg_35" height="46.30542" width="12.807882" y="426.58047" x="299.682251" stroke-width="2" fill="#d8d8d8"/>
  <rect transform="matrix(0.5100319467760148,0,0,0.6168774864489283,-97.78008533436791,-214.10050765164) " stroke="null" rx="2" id="svg_34" height="158.620703" width="4.433504" y="394.068144" x="304.115746" stroke-width="2" fill="#d8d8d8"/>
  <path stroke="null" id="svg_33" d="m61.839886,98.727767c0,0.280278 -1.563008,0.507487 -3.491072,0.507487m3.491072,-0.507487l0,0c0,0.280278 -1.563008,0.507487 -3.491072,0.507487c-1.928069,0 -3.491072,-0.227208 -3.491072,-0.507487m0,0l0,0c0,-0.280272 1.563003,-0.50748 3.491072,-0.50748c1.928064,0 3.491072,0.227208 3.491072,0.50748l0,2.029934c0,0.280278 -1.563008,0.507487 -3.491072,0.507487c-1.928069,0 -3.491072,-0.227208 -3.491072,-0.507487l0,-2.029934z" stroke-width="2" fill="#d8d8d8"/>
  <path stroke="null" id="svg_36" d="m142.861582,96.535804c0,0 -0.113094,-30.277186 -0.364341,-37.589701c-1.256234,-26.760867 -7.661843,-21.19385 -46.165006,-20.798746c-27.950776,13.461969 -29.187333,15.392352 -43.468228,36.180377c0.251247,7.803204 -0.045541,19.266163 0.456953,23.908753" stroke-width="2" fill="#d8d8d8"/>
  <!-- Created with Method Draw - http://github.com/duopixel/Method-Draw/ -->

  <line stroke-width="10" stroke-linecap="null" stroke-linejoin="null" id="svg_124" y2="195.80933" x2="109.741417" y1="139.814775" x1="109.741417" stroke="#d8d8d8" fill="#d8d8d8"/>
  <rect stroke="null" id="svg_128" height="17.326494" width="25.742218" y="118.588883" x="21.928272" stroke-width="2" fill="#d8d8d8"/>
  <line stroke-width="10" stroke-linecap="null" stroke-linejoin="null" id="svg_126" y2="195.80933" x2="9.742801" y1="139.814775" x1="9.742801" stroke="#d8d8d8" fill="#d8d8d8"/>
  <rect stroke="#000000" id="svg_123" height="7.920679" width="109.404429" y="134.430249" x="4.792373" stroke-width="0" fill="#9ba7ff"/>
 </g>
</svg>