<svg width="260" height="260" xmlns="http://www.w3.org/2000/svg">

 <g>
  <title>background</title>
  <rect fill="none" id="canvas_background" height="402" width="582" y="-1" x="-1"/>
 </g>
 <g>
  <title>Layer 1</title>
  <ellipse fill="#eeeeee" stroke-width="0" cx="129.999998" cy="130.000003" id="svg_1" rx="129.999998" ry="129.999998" stroke="#000"/>
  <path fill="#cccccc" d="m173.33294,205.5l4.0334,-19.86707l16.13366,-4.96677l-20.16706,24.83384l-100.83295,0l0,-149l121.00001,0l0,124.16616" id="svg_4" stroke="#999999" transform="rotate(-10.434606552124023 132.99999999999986,130.9999999999999) "/>
  <path fill="#cccccc" d="m177.33294,204.5l4.0334,-19.86707l16.13366,-4.96677l-20.16706,24.83384l-100.83295,0l0,-149l121.00001,0l0,124.16616" id="svg_5" stroke="#999999" transform="rotate(4.570859909057617 136.9999999999993,129.99999999999991) "/>
  <path fill="#cccccc" d="m173.33294,205.5l4.0334,-19.86707l16.13366,-4.96677l-20.16706,24.83384l-100.83295,0l0,-149l121.00001,0l0,124.16616" id="svg_6" stroke="#999999" transform="rotate(-3.2780702114105225 133.00000000000034,131.0000000000003) "/>
  <text font-style="normal" font-weight="normal" fill="#666666" stroke="#cccccc" stroke-width="0" x="82" y="89.999997" id="svg_7" font-size="11" font-family="'Courier New', Courier, monospace" text-anchor="start" xml:space="preserve">Program</text>
  <text font-style="normal" font-weight="normal" fill="#666666" stroke="#cccccc" stroke-width="0" x="89" y="178.999997" id="svg_8" font-size="11" font-family="'Courier New', Courier, monospace" text-anchor="start" xml:space="preserve">End Program</text>
 </g>
</svg>