<svg width="212" height="294" xmlns="http://www.w3.org/2000/svg">
 <!-- Created with Method Draw - http://github.com/duopixel/Method-Draw/ -->
 <g>
  <title>Layer 1</title>
  <path stroke="#fff" id="svg_2" d="m30.460739,287.288761c0,0 4,8.050585 12,5.750418c8,-2.300167 17,-4.600334 31,-4.600334c14,0 24,2.300167 29,3.450251c5,1.150084 14,-2.300167 14,-10.350752c0,-8.050585 -9,-28.752089 -9.5,-28.752089c0.5,0 -9.5,12.650919 -10.5,4.600334c-1,-8.050585 -1,-21.851587 -1.5,-21.851587c0.5,0 -32.5,6.900501 -40.5,3.450251c-8,-3.450251 -8,16.10117 -8,16.10117c0,0 -21,-2.300167 -21,-2.300167c0,0 5,34.502506 5,34.502506z" stroke-width="0" fill="#000"/>
  <path stroke="#fff" id="svg_10" d="m64.388649,190.697705c0,0 -41.86032,1.74418 -42.03569,1.74352c0.17537,0.00066 0.17537,29.07033 0,29.06968c0.17537,0.00065 9.47766,0.58205 9.47766,0.58205c0,0 2.32558,7.55811 2.32558,7.55811c0,0 -13.95345,0.58139 -14.12882,0.58074c0.17537,0.00065 2.50095,8.72156 2.32558,8.7209c0.17537,0.00066 29.24504,1.74484 29.06967,1.74418c0.17537,0.00066 19.94275,-41.85967 19.94275,-41.85967c0,0 -6.97673,-8.13951 -6.97673,-8.13951z" stroke-width="0" fill="#000"/>
  <path id="svg_3" d="m60.391026,229.651066c0,0 5.813934,-6.395328 14.534836,-8.139508c8.720902,-1.74418 20.930164,-0.581393 20.930164,-0.581393c0,0 11.046475,-2.906967 11.046475,-2.906967c0,0 -41.278934,-100.581066 -41.278934,-100.581066c0,0 -1.162787,-12.209262 -1.162787,-12.209262c0,0 -1.74418,-29.651066 -1.919551,-29.651722c0.17537,0.000657 -7.964138,-8.138851 -13.778072,-6.976064c-5.813934,1.162787 -12.790656,2.325574 -15.697623,9.302295c-2.906967,6.976721 -5.813934,11.046475 -1.74418,20.34877c4.069754,9.302295 5.232541,19.185984 5.232541,19.185984c0,0 20.930164,76.743934 20.930164,76.743934c0,0 -0.581393,15.116229 -0.581393,20.34877c0,5.232541 3.488361,15.116229 3.488361,15.116229z" stroke-width="0" stroke="#fff" fill="#ff7300"/>
  <path id="svg_4" d="m26.670206,80.232951c0,0 15.116229,-8.139508 15.116229,-8.139508c0,0 81.395082,-38.371967 81.395082,-38.371967c0,0 13.372049,-4.651148 13.372049,-4.651148c0,0 6.395328,-2.325574 8.139508,0c1.74418,2.325574 22.092951,-8.139508 22.092951,-8.139508c0,0 2.325574,-8.139508 2.325574,-8.139508c0,0 31.976639,-12.790656 31.801268,-12.791312c0.175371,0.000656 -3.894383,5.233197 0.756765,11.047132c4.651148,5.813934 9.883689,9.883689 9.883689,9.883689c0,0 -11.627869,9.883689 -11.80324,9.883032c0.175371,0.000657 4.826519,4.651804 -5.05717,7.558771c-9.883689,2.906967 -18.60459,-2.325574 -18.60459,-2.325574c0,0 -23.837131,9.302295 -23.837131,9.302295c0,0 -3.488361,6.976721 -3.663732,6.976065c0.175371,0.000657 -27.731514,16.279673 -27.731514,16.279673c0,0 -37.20918,16.279016 -37.384551,16.27836c0.175371,0.000657 -6.801351,7.558772 -6.801351,7.558772c0,0 4.651148,7.558115 -3.488361,9.302295c-8.139508,1.74418 -22.674344,0 -22.849715,-0.000657c0.17537,0.000657 -19.010613,-7.557458 -19.010613,-7.557458c0,0 -4.651148,-13.953443 -4.651148,-13.953443z" stroke-width="0" stroke="#fff" fill="#ff7300"/>
  <ellipse transform="rotate(-22.166372299194336 205.15800476074222,11.047132492065462) " ry="11.046475" rx="4.651148" id="svg_5" cy="11.047132" cx="205.157993" stroke-width="0" stroke="#fff" fill="#ffffff"/>
  <path stroke="#fff" id="svg_7" d="m79.578368,182.558197c0,0 12.034234,6.976721 12.034234,6.976721c0,0 4.011411,0 3.876967,-0.000657c0.134444,0.000657 10.385829,13.9541 10.385829,13.9541c0,0 0.445712,19.185984 0.445712,19.185984c0,0 -12.034234,13.372049 -12.168678,13.371391c0.134444,0.000658 -9.225516,4.070412 -9.225516,4.070412c0,0 -0.891425,4.069754 -0.891425,4.069754c0,0 -36.548414,6.976721 -36.548414,6.395328c0,-0.581393 -3.565699,-6.395328 -1.782849,-12.790656c1.782849,-6.395328 5.794261,-13.953443 8.914247,-18.023197c3.119987,-4.069754 24.959893,-37.20918 24.959893,-37.20918z" stroke-width="0" fill="#ff7300"/>
  <path stroke="#fff" id="svg_11" d="m0.000003,293.959766l24.636545,-43.023121l82.12182,0l24.636536,43.023121l-131.394901,0z" fill-opacity="null" stroke-opacity="null" stroke-width="0" fill="#000"/>
  <ellipse ry="15.116229" rx="15.697623" id="svg_12" cy="88.372459" cx="49.34455" fill-opacity="null" stroke-opacity="null" stroke-width="0" stroke="#fff" fill="#000"/>
 </g>
</svg>