<svg width="192" height="205" xmlns="http://www.w3.org/2000/svg">
 <!-- Created with Method Draw - http://github.com/duopixel/Method-Draw/ -->

 <g>
  <title>background</title>
  <rect x="-1" y="-1" width="194" height="207" id="canvas_background" fill="none"/>
 </g>
 <g>
  <title>Layer 1</title>
  <!-- Created with Method Draw - http://github.com/duopixel/Method-Draw/ -->
  <!-- Created with Method Draw - http://github.com/duopixel/Method-Draw/ -->
  <defs>
   <filter height="200%" width="200%" y="-50%" x="-50%" id="svg_45">
    <feGaussianBlur stdDeviation="7.5"/>
   </filter>
  </defs>
  <!-- Created with Method Draw - http://github.com/duopixel/Method-Draw/ -->
  <defs stroke="null" transform="translate(-53.45439529418945,-2.842170943040401e-14) translate(106.9087905883789,103.12374877929688) translate(-538.9984741210938,-268.85833740234375) translate(-423.2381286621094,-699.8633422851562) translate(1322.0872802734375,0) translate(0,1121.41259765625) ">
   <filter stroke="null" height="200%" width="200%" y="-50%" x="-50%" id="svg_31">
    <feGaussianBlur stroke="null" stdDeviation="10"/>
   </filter>
  </defs>
  <g id="svg_56">
   <ellipse stroke="#ffffff" opacity="0.33" filter="url(#svg_31)" ry="17.857137" rx="667.857166" id="svg_43" cy="24880.713573" cx="17270.734263" stroke-width="0" fill="#212121" transform="matrix(0.1354131772612559,0,0,0.23692425662208405,-2239.378610151604,-5698.546765523441) "/>
   <path stroke="#999999" id="svg_42" d="m84.653715,62.950625c0,0 2.371324,-12.498561 -0.099471,-24.837468c22.978289,-47.734387 78.931916,-35.829848 89.625278,-1.332276c10.693362,34.497572 4.72497,108.961291 4.72497,108.961291" stroke-width="8" fill="none"/>
   <path stroke="#ff5800" opacity="0.33" filter="url(#svg_45)" id="svg_44" d="m-410.761236,-404.251805c0,0 5.137139,1.42396 5.019252,1.409005c0.117887,0.014955 -5.019252,1.082924 -5.137139,1.067972c0.117887,0.014953 -40.56824,-0.798737 -40.686127,-0.813689c0.117887,0.014953 -1.936967,-2.070133 -2.054853,-2.085086c0.117887,0.014953 -21.047118,-0.188469 -21.165005,-0.203422c0.117887,0.014953 -0.909541,-2.88382 -1.027428,-2.898775c0.117887,0.014955 57.242852,0.320088 57.124965,0.305135c0.117887,0.014953 10.186678,3.168005 10.068789,3.153052" stroke-width="0" fill="#212121"/>
   <path stroke="null" id="svg_41" d="m165.796392,119.537006c0,1.078857 -9.704837,1.953447 -21.676358,1.953447m21.676358,-1.953447l0,0c0,1.078857 -9.704837,1.953447 -21.676358,1.953447c-11.971521,0 -21.676353,-0.87459 -21.676353,-1.953447m0,0l0,0c0,-1.078857 9.704832,-1.953447 21.676353,-1.953447c11.971521,0 21.676358,0.87459 21.676358,1.953447l0,7.813796c0,1.078857 -9.704837,1.953441 -21.676358,1.953441c-11.971521,0 -21.676353,-0.874584 -21.676353,-1.953441l0,-7.813796z" stroke-width="2" fill="#d8d8d8"/>
   <rect transform="matrix(0.5100319467760148,0,0,0.6168774864489283,-97.78008533436791,-214.10050765164) " stroke="null" id="svg_40" height="85.000001" width="85" y="580.590572" x="471.844814" stroke-width="2" fill="#d8d8d8"/>
   <path stroke="null" id="svg_39" d="m95.922015,96.095662c0,2.100937 -6.393776,3.80408 -14.2809,3.80408m14.2809,-3.80408l0,0c0,2.100937 -6.393776,3.80408 -14.2809,3.80408c-7.887119,0 -14.280889,-1.703143 -14.280889,-3.80408m0,0l0,0c0,-2.100937 6.393771,-3.80408 14.280889,-3.80408c7.887124,0 14.2809,1.703143 14.2809,3.80408l0,15.216332c0,2.10093 -6.393776,3.804074 -14.2809,3.804074c-7.887119,0 -14.280889,-1.703143 -14.280889,-3.804074l0,-15.216332z" stroke-width="2" fill="#d8d8d8"/>
   <path stroke="null" id="svg_38" d="m106.873343,196.487328l14.398824,-69.707144l47.996082,0l14.398819,69.707144l-76.793725,0z" stroke-width="2" fill="#d8d8d8"/>
   <path stroke="null" id="svg_37" d="m165.796392,106.578014c0,1.930592 -22.035691,3.495647 -49.218088,3.495647m49.218088,-3.495647l0,0c0,1.930592 -22.035691,3.495647 -49.218088,3.495647c-27.182392,0 -49.218078,-1.565049 -49.218078,-3.495647m0,0l0,0c0,-1.930586 22.035685,-3.495641 49.218078,-3.495641c27.182397,0 49.218088,1.565055 49.218088,3.495641l0,13.982577c0,1.930592 -22.035691,3.495641 -49.218088,3.495641c-27.182392,0 -49.218078,-1.565049 -49.218078,-3.495641l0,-13.982577z" stroke-width="2" fill="#d8d8d8"/>
   <rect transform="matrix(0.5100319467760148,0,0,0.6168774864489283,-97.78008533436791,-214.10050765164) " stroke="null" rx="5" id="svg_35" height="46.30542" width="12.807882" y="426.58047" x="207.446629" stroke-width="2" fill="#d8d8d8"/>
   <rect transform="matrix(0.5100319467760148,0,0,0.6168774864489283,-97.78008533436791,-214.10050765164) " stroke="null" rx="2" id="svg_34" height="158.620703" width="4.433504" y="394.068144" x="211.880124" stroke-width="2" fill="#d8d8d8"/>
   <path stroke="null" id="svg_33" d="m14.796772,98.727767c0,0.280278 -1.563008,0.507487 -3.491072,0.507487m3.491072,-0.507487l0,0c0,0.280278 -1.563008,0.507487 -3.491072,0.507487c-1.928069,0 -3.491072,-0.227208 -3.491072,-0.507487m0,0l0,0c0,-0.280272 1.563003,-0.50748 3.491072,-0.50748c1.928064,0 3.491072,0.227208 3.491072,0.50748l0,2.029934c0,0.280278 -1.563008,0.507487 -3.491072,0.507487c-1.928069,0 -3.491072,-0.227208 -3.491072,-0.507487l0,-2.029934z" stroke-width="2" fill="#d8d8d8"/>
   <path stroke="null" id="svg_36" d="m95.818468,96.535804c0,0 -0.113094,-30.277186 -0.364341,-37.589701c-1.256234,-26.760867 -7.661843,-21.19385 -46.165006,-20.798746c-27.950776,13.461969 -29.187333,15.392352 -43.468228,36.180377c0.251247,7.803204 -0.045541,19.266163 0.456953,23.908753" stroke-width="2" fill="#d8d8d8"/>
   <path id="svg_54" d="m14.529829,123.369871c0,0.865782 -1.329829,1.567636 -2.970256,1.567636m2.970256,-1.567636l0,0c0,0.865782 -1.329829,1.567636 -2.970256,1.567636c-1.640427,0 -2.970255,-0.701853 -2.970255,-1.567636m0,0l0,0c0,-0.865781 1.329829,-1.567636 2.970255,-1.567636c1.640427,0 2.970256,0.701855 2.970256,1.567636l0,6.270548c0,0.865781 -1.329829,1.567634 -2.970256,1.567634c-1.640427,0 -2.970255,-0.701853 -2.970255,-1.567634l0,-6.270548z" stroke-width="0" stroke="#000000" fill="#9ba7ff"/>
   <path id="svg_55" d="m21.487653,129.855748c0,0.637945 -4.321944,1.155101 -9.653333,1.155101m9.653333,-1.155101l0,0c0,0.637945 -4.321944,1.155101 -9.653333,1.155101c-5.331387,0 -9.65333,-0.517156 -9.65333,-1.155101m0,0l0,0c0,-0.637944 4.321943,-1.155101 9.65333,-1.155101c5.331389,0 9.653333,0.517157 9.653333,1.155101l0,4.620408c0,0.637944 -4.321944,1.155099 -9.653333,1.155099c-5.331387,0 -9.65333,-0.517155 -9.65333,-1.155099l0,-4.620408z" fill-opacity="null" stroke-opacity="null" stroke-width="0" stroke="#000000" fill="#9ba7ff"/>
  </g>
 </g>
</svg>